
<svg xmlns="http://www.w3.org/2000/svg" version="1.1" xmlns:xlink="http://www.w3.org/1999/xlink" xmlns:svgjs="http://svgjs.dev/svgjs" viewBox="0 0 800 600"><defs><linearGradient x1="50%" y1="0%" x2="50%" y2="100%" id="wwwhirl-grad"><stop stop-color="hsl(206, 75%, 49%)" stop-opacity="1" offset="45%"></stop><stop stop-color="hsl(331, 90%, 56%)" stop-opacity="1" offset="100%"></stop></linearGradient></defs><g stroke-width="2" stroke="url(#wwwhirl-grad)" fill="none" stroke-linecap="round"><path d="M55.000002392855635 401.8303871811796C68.06818457359132 393.4014096746051 91.5909124989156 355.68663590100186 117.72727686038701 361.3712951496219C143.86364122185842 367.0559543982419 154.31818696644694 430.292887970822 180.45455132791835 429.1167515745558C206.59091568938973 427.94061517828953 217.04546143397835 357.29402230923233 243.18182579544973 355.72584044754404C269.3181901569211 354.15765858585576 279.7727359015097 421.78550137116304 305.90910026298116 421.589478638452C332.0454646244525 421.39345590574095 342.50001036904104 358.1173177866187 368.63637473051244 354.7849313305311C394.77273909198385 351.4525448744435 405.22728483657244 401.8695917277218 431.3636491980438 405.59402364923153C457.50001355951525 409.3184555707412 467.95455930410384 363.8411815817809 494.0909236655752 372.66220455377754C520.2272880270465 381.4832275257741 530.6818337716352 451.0712976381917 556.8181981331065 447.93493391481513C582.954562494578 444.7985701914386 593.4091082391666 358.1957268797031 619.5454726006379 357.60765868157C645.6818369621094 357.0195904834369 656.136382706698 446.2883429600425 682.2727470681692 445.1122065637762C708.4091114296406 443.93607016751 731.9318393549648 371.3684545178847 745.0000215357006 351.9622039794922 " transform="rotate(207, 400, 400)"></path><path d="M60.00000235817656 401.80386884225896C72.87879059426392 393.4970504299826 96.06060941922118 356.3288675806345 121.81818589139587 361.9311404633325C147.5757623635706 367.5334133460305 157.87879295244045 429.8538696204572 183.63636942461517 428.6947786792094C209.39394589678992 427.5356877379615 219.6969764856598 357.91295853367325 245.45455295783452 356.3675039453428C271.2121294300092 354.8220493570123 281.5151600188791 421.4697784787644 307.2727364910538 421.27659665522305C333.0303129632286 421.0834148316817 343.3333435520984 358.72432219254677 369.09092002427315 355.44023119234447C394.8484964964478 352.1561401921422 405.15152708531775 401.84250520696725 430.9091035574925 405.51295985425213C456.6666800296672 409.183414501537 466.9697106185371 364.365231439953 492.7272870907118 373.058413499312C518.4848635628864 381.75159555867094 528.7878941517563 450.33114291583615 554.5454706239311 447.24023373917515C580.3030470961058 444.1493245625142 590.6060776849756 358.8015949219633 616.3636541571504 358.22204945133933C642.1212306293252 357.64250398071545 652.424261218195 445.6175064214282 678.1818376903698 444.4584154801803C703.9394141625444 443.2993245389324 727.1212329875017 371.7834134639393 740.000021223589 352.6584129333496 " transform="rotate(204, 400, 400)"></path><path d="M65.0000023234975 401.77734668864105C77.6893966149365 393.5926873706629 100.53030633952675 356.97109544556986 125.90909492240476 362.49098196234587C151.28788350528276 368.0108684791218 161.439398938434 429.4148474553952 186.81818752131204 428.2728019691657C212.19697610419004 427.1307564829362 222.3484915373413 358.5318909434169 247.72728012021932 357.0091636284442C273.1060687030973 355.48643631347153 283.25758413624857 421.15405177166843 308.6363727191266 420.96371085729686C334.0151613020046 420.7733699429252 344.1666767351558 359.3313227837775 369.5454653180338 356.0955272394606C394.9242539009118 352.85973169514364 405.07576933406307 401.8154148715154 430.4545579169411 405.43189224457547C455.83334649981913 409.0483696176356 465.9848619329704 364.8892774834278 491.3636505158484 373.4546186301492C516.7424390987264 382.0199597768705 526.8939545318776 449.5909843787832 552.2727431147556 446.5455297488379C577.6515316976337 443.50007511889254 587.8030471307849 359.4074591495262 613.181835713663 358.8364364064114C638.560624296541 358.26541366329667 648.7121397296922 444.94666606811654 674.0909283125702 443.8046205818871C699.4697168954482 442.66257509565753 722.3106266200384 372.1983685952967 735.0000209114775 353.35461807250977 " transform="rotate(201, 400, 400)"></path><path d="M70.00000228881842 401.75082072032586C82.50000263560909 393.6883204966459 105.00000325983231 357.613319495808 130.00000395341365 363.0508196466619C155.00000464699497 368.4883197975159 165.00000492442751 428.97582147563594 190.00000561800886 427.8508214444248C215.0000063115902 426.7258214132136 225.00000658902275 359.1508195384632 250.00000728260406 357.6508194968484C275.00000797618543 356.1508194552335 285.000008253618 420.8383212498752 310.0000089471993 420.65082124467335C335.00000964078066 420.4633212394715 345.00000991821315 359.9383195603111 370.0000106117945 356.7508194718794C395.00001130537584 353.56331938344783 405.0000115828084 401.78832072136623 430.0000122763897 405.3508208202016C455.000012969971 408.9133209190369 465.0000132474036 365.41331971220535 490.00001394098496 373.8508199462891C515.0000146345662 382.2883201803728 525.0000149119987 448.85082202703313 550.0000156055801 445.85082194380334C575.0000162991615 442.8508218605736 585.000016576594 360.0133195623918 610.0000172701755 359.45081954678625C635.0000179637568 358.8883195311806 645.0000182411893 444.2758219001077 670.0000189347705 443.15082186889657C695.0000196283519 442.0258218376854 717.5000202525752 372.6133199119568 730.0000205993658 354.05081939697266 " transform="rotate(198, 400, 400)"></path><path d="M75.00000225413936 401.72428712261615C87.31060865628169 393.78394599323434 109.46970018013789 358.2555359166516 134.09091298442252 363.6106497015835C158.71212578870717 368.9657634865154 168.56061091042105 428.53678786648214 193.18182371470567 427.42883329028933C217.80303651899033 426.3208787140965 227.65152164070423 359.7697405041151 252.27273444498888 358.292467735858C276.89394724927354 356.8151949676009 286.74243237098744 420.5225830986875 311.36364517527204 420.3379240026553C335.9848579795567 420.1532649066232 345.83334310127054 360.54530870745003 370.4545559055552 357.40610407490374C395.07576870983985 354.26689944235744 404.9242538315537 401.76121894182256 429.54546663583835 405.2697417664331C454.166679440123 408.7782645910437 464.0151645618369 365.93735431158836 488.63637736612156 374.24701363303444C513.2575901704062 382.5566729544805 523.1060752921201 448.1106520458884 547.7272880964047 445.1561065093743C572.3485009006894 442.20156097286014 582.1969860224033 360.6191723458629 606.8181988266879 360.0651950577665C631.4394116309727 359.5112177696701 641.2878967526865 443.6049701027043 665.9091095569711 442.4970155265115C690.5303223612557 441.3890609503187 712.6894138851118 373.0282635992224 725.0000202872542 354.747013092041 " transform="rotate(195, 400, 400)"></path><path d="M80.0000022194603 401.69777259839276C92.12121467695428 393.87959056330914 113.93939710044346 358.8977714109815 138.1818220154314 364.17049882999135C162.42424693041937 369.44322624900127 172.12121689641455 428.0977733308147 196.36364181140254 427.0068642096402C220.6060667263905 425.9159550884657 230.3030366923857 360.38868054325326 254.54546160737368 358.934135048354C278.78788652236165 357.4795895534547 288.48485648835685 420.2068640209861 312.7272814033448 420.02504583412366C336.9697063183327 419.84322764726124 346.66667628432793 361.1523169280754 370.9091011993159 358.0614077514144C395.15152611430386 354.97049857475344 404.84849608029907 401.7341362357652 429.09092099528704 405.188681786151C453.33334591027494 408.6432273365368 463.03031587627015 366.4614079844577 487.2727407912582 374.64322639326616C511.5151657062461 382.8250448020746 521.2121356722412 447.3705011382301 545.4545605872293 444.4614101484315C569.6969855022173 441.55231915863294 579.3939554682124 361.22504420282036 603.6363803832005 360.6795896422331C627.8788052981884 360.13413508164587 637.5757752641836 442.9341373787873 661.8182001791715 441.84322825761285C686.0606250941595 440.75231913643836 707.8788075176486 373.4432263599743 720.0000199751425 355.4432258605957 " transform="rotate(192, 400, 400)"></path><path d="M85.00000218478122 401.67123900068304C96.93182069762686 393.9752160598976 118.40909402074902 359.5399878318251 142.2727310464403 364.7303288849129C166.13636807213157 369.9206699380008 175.68182288240808 427.6587397216608 199.54545990809936 426.5848760555047C223.40909693379064 425.5110123893486 232.95455174406717 361.00760150890505 256.8181887697584 359.5757832873636C280.68182579544975 358.14396506582216 290.22728060572626 419.8911258697983 314.09091763141754 419.7121485921056C337.9545546571088 419.5331713144129 347.50000946738527 361.75930607521434 371.3636464930766 358.7166923544387C395.2272835187679 355.6740786336631 404.7727383290444 401.70703445622155 428.63637535473566 405.1076027323826C452.50001238042694 408.50817100854357 462.04546719070345 366.9854425838407 485.9091042163947 375.03942008001155C509.772741242086 383.0933975761824 519.3181960523625 446.6303311570854 543.1818330780538 443.7666947140024C567.0454701037452 440.9030582709195 576.5909249140216 361.8308969862914 600.4545619397129 361.2939651532134C624.3181989654042 360.75703332013535 633.8636537756807 442.2632855813839 657.727290801372 441.18942191522774C681.5909278270632 440.1155582490717 703.0682011501854 373.8581700472398 715.000019663031 356.13941955566406 " transform="rotate(189, 400, 400)"></path><path d="M90.00000215010216 401.64470540297333C101.74242671829946 394.070841556486 122.8787909410546 360.18220425266867 146.3636400774492 365.2901589398345C169.84848921384378 370.39811362700027 179.2424288684016 427.219706112507 202.7272780047962 426.16288790136923C226.2121271411908 425.1060696902315 235.60606679574863 361.6265224745569 259.0909159321433 360.2174315263732C282.57576506853786 358.8083405781896 291.9697047230957 419.57538771861056 315.45455385949026 419.39925135008764C338.93940299588485 419.22311498156466 348.33334265044266 362.36629522235336 371.81819178683725 359.37197695746306C395.30304092323183 356.3776586925727 404.6969805777897 401.6799326766779 428.1818297141843 405.0265236786141C451.6666788505789 408.3731146805504 461.0606185051368 367.50947718322374 484.54546764153133 375.43561376675694C508.03031677792586 383.3617503502901 517.4242564324836 445.8901611759407 540.9091055688783 443.0719792795734C564.393954705273 440.253797383206 573.7878943598307 362.4367497697625 597.2727434962254 361.90834066419364C620.75759263262 361.3799315586248 630.1515322871778 441.5924337839805 653.6363814235724 440.53561557284274C677.121230559967 439.478797361705 698.2575947827221 374.2731137345054 710.0000193509194 356.8356132507324 " transform="rotate(186, 400, 400)"></path><path d="M95.00000211542309 401.61817943465815C106.55303273897204 394.166474682469 127.34848786136017 360.82442830290677 150.45454910845808 365.84999662415055C173.56061035555598 370.87556494539433 182.80303485439515 426.78068013274776 205.90909610149305 425.74090737662834C229.01515734859092 424.7011346205089 238.25758184743012 362.2454510696033 261.363643094528 360.8590873947774C284.46970434162597 359.47272371995155 293.7121288404651 419.2596571968174 316.818190087563 419.08636173746413C339.92425133466094 418.9130662781109 349.16667583350005 362.97329199888685 372.27273708059795 360.0272691898819C395.37879832769585 357.0812463808769 404.6212228265351 401.65283852652874 427.727284073633 404.9454522542402C450.83334532073087 408.23806598195165 460.07576981957004 368.0335194120013 483.18183106666794 375.83181508289687C506.2878923137658 383.6301107537924 515.530316812605 445.14999882419056 538.6363780597028 442.3772714745388C561.7424393068009 439.60454412488707 570.98486380564 363.04261018262815 594.0909250527379 362.52272380456844C617.1969862998359 362.00283742650873 626.439410798675 440.92158961597164 649.5454720457728 439.8818168598523C672.6515332928707 438.84204410373286 693.4469884152588 374.6880650511655 705.0000190388077 357.5318145751953 " transform="rotate(183, 400, 400)"></path><path d="M100.00000208074403 401.59165728104017C111.36363875964463 394.2621116231493 131.81818478166574 361.46665616784213 154.54545813946694 366.4098381231639C177.27273149726818 371.35302007848566 186.36364084038865 426.3416579676857 209.09091419818986 425.31893066658466C231.81818755599107 424.2962033654836 240.90909689911157 362.86438347934694 263.6363702569128 361.5007470778788C286.3636436147141 360.13711067641077 295.45455295783455 418.9439304897214 318.18182631563576 418.7734759395379C340.90909967343697 418.6030213893544 350.00000901655744 363.58029259011766 372.72728237435865 360.682565236998C395.45455573215986 357.78483788387837 404.54546507528033 401.6257481910769 427.27273843308154 404.8643846445636C450.0000117908828 408.10302109805025 459.09092113400334 368.55756545547615 481.8181944918045 376.22802021373406C504.54546784960564 383.89847497199196 513.6363771927262 444.4098402871377 536.3636505505274 441.6825674842015C559.0909239083287 438.9552946812654 568.1818332514492 363.64847441019106 590.9091066092504 363.1371107596405C613.6363799670517 362.62574710909 622.7272893101721 440.25074926266007 645.4545626679733 439.228021961559C668.1818360257744 438.205294660458 688.6363820477956 375.10302018252287 700.0000187266962 358.22801971435547 " transform="rotate(180, 400, 400)"></path><path d="M105.00000204606496 401.56513512742225C116.17424478031722 394.35774856382955 136.28788170197132 362.1088840327775 158.63636717047584 366.96967962217724C180.98485263898036 371.830475211577 189.9242468263822 425.9026358026237 212.2727322948867 424.896953956541C234.62121776339123 423.8912721104583 243.56061195079306 363.48331588909053 265.9090974192976 362.1424067609803C288.2575828878021 360.80149763287 297.19697707520396 418.6282037826255 319.5454625437085 418.4605901416117C341.893948012213 418.2929765005979 350.8333421996148 364.1872931813484 373.18182766811935 361.3378612841141C395.5303131366238 358.4884293868798 404.4697073240257 401.59865785562505 426.8181927925302 404.7833170348869C449.16667826103475 407.96797621414885 458.1060724484366 369.0816114989509 480.4545579169411 376.6242253445712C502.8030433854456 384.16683919019147 511.74243757284734 443.6696817500848 534.090923041352 440.98786349386427C556.4394085098565 438.30604523764373 565.3788026972583 364.25433863775396 587.727288165763 363.7514977147126C610.0757736342675 363.24865679167124 619.0151678216693 439.5799089093485 641.3636532901737 438.57422706326577C663.7121387586783 437.5685452171831 683.8257756803323 375.51797531388024 695.0000184145846 358.9242248535156 " transform="rotate(177, 400, 400)"></path><path d="M110.00000201138589 401.53859771501527C120.98485080098982 394.45337024572075 140.75757862227687 362.75109663892385 162.72727620148473 367.52950586240155C184.69697378069256 372.30791508587924 193.4848528123757 425.46359837877264 215.45455039158355 424.4749619877083C237.42424797079138 423.48632559664395 246.21212700247455 364.1022330400451 268.18182458168235 362.78405118529264C290.1515221608902 361.46586933054016 298.93940119257337 418.3124618167405 320.9090987717812 418.1476890848964C342.8787963509891 417.98291635305236 351.6666753826722 364.7942785137902 373.63637296188 361.9931420724412C395.60607054108783 359.1920056310922 404.393949572771 401.5715522613841 426.36364715197885 404.7022341664212C448.3333447311867 407.8329160714583 457.1212237628699 369.6056422836367 479.0909213420777 377.0204152166193C501.0606189212855 384.43518814960197 509.8484979529686 442.92950795424287 531.8181955321766 440.2931442447379C553.7878931113844 437.656780535233 562.5757721430675 364.8601876065278 584.5454697222754 364.36586941099563C606.5151673014833 363.87155121546346 615.3030463331664 438.90905329724785 637.2727439123742 437.9204169061835C659.242441491582 436.9317805151191 679.015169312869 375.93291518644855 690.000018102473 359.6204147338867 " transform="rotate(174, 400, 400)"></path><path d="M115.00000197670683 401.5120679320028C125.7954568216624 394.5489995570065 145.22727554258245 363.3933168744647 166.8181852324936 368.08933973202033C188.40909492240476 372.78536258957604 197.04545879836922 425.02456858431606 218.63636848828037 424.0529776482701C240.2272781781915 423.08138671222406 248.86364205415603 364.72115782039424 270.4545517440672 363.4257032389996C292.0454614339783 362.13024865760485 300.68182530994284 417.99672748025 322.272734999854 417.8347956575757C343.8636446897651 417.6728638349013 352.50000856572956 365.4012714756264 374.0909182556407 362.64843049016275C395.6818279455519 359.89558950469905 404.31819182151634 401.5444542965377 425.9091015114275 404.62115892735005C447.5000112013387 407.6978635581624 456.1363750773031 370.129680697717 477.72728476721426 377.41661271806197C499.3181944571254 384.703544738407 507.95455833308984 442.18934178779546 529.545468023001 439.5984326250061C551.1363777129122 437.0075234622168 559.7727415888767 365.4660442046962 581.363651278788 364.98024873667316C602.9545609686991 364.49445326865015 611.5909248446635 438.2382053145417 633.1818345345746 437.2666143784957C654.7727442244857 436.2950234424497 674.2045629454058 376.3478626884114 685.0000177903614 360.31661224365234 " transform="rotate(171, 400, 400)"></path><path d="M120.00000194202775 401.48554196368764C130.606062842335 394.6446326829895 149.69697246288803 364.0355409247028 170.90909426350248 368.64917741633644C192.12121606411696 373.2628139079701 200.60606478436273 424.5855426045568 221.8181865849772 423.63099712352914C243.03030838559167 422.6764516425015 251.5151571058375 365.34008641544057 272.72727890645194 364.0673591074037C293.9394007070664 362.79463179936687 302.42424942731225 417.6809969584568 323.6363712279267 417.5219060449522C344.84849302854116 417.3628151314476 353.3333417487869 366.00826825215995 374.5454635494014 363.3037227225816C395.75758535001586 360.59917719300324 404.24243407026165 401.51736014638857 425.45455587087616 404.5400875029761C446.6666776714906 407.5628148595637 455.1515263917364 370.65372292649454 476.36364819235087 377.8128140342019C497.57576999296526 384.9719051419093 506.0606187132111 441.4491794360453 527.2727405138255 438.90372481997156C548.4848623144401 436.35827020389786 556.9697110346858 366.0719046175618 578.1818328353004 365.59463187704796C599.3939546359148 365.1173591365341 607.8788033561607 437.56736114653285 629.090925156775 436.6128156655052C650.3030469573895 435.65827018447754 669.3939565779425 376.7628140050715 680.0000174782498 361.01281356811523 " transform="rotate(168, 400, 400)"></path><path d="M125.00000190734869 401.4590198100697C135.41666886300757 394.74026962366975 154.1666693831936 364.67776878963815 175.00000329451137 369.2090189153498C195.83333720582914 373.7402690410614 204.16667077035626 424.1465204394948 225.00000468167406 423.2090204134855C245.83333859299182 422.2715203874762 254.16667215751897 365.9590188251842 275.00000606883674 364.7090187905051C295.8333399801545 363.4590187558261 304.16667354468166 417.36527025136087 325.0000074559994 417.209020247026C345.8333413673172 417.05277024269105 354.16667493184434 366.6152688433907 375.00000884316205 363.9590187696977C395.8333427544799 361.3027686960047 404.166676319007 401.4902698109367 425.0000102303248 404.4590198932995C445.83334414164256 407.4277699756623 454.1666777061697 371.17776896996935 475.0000116174875 378.2090191650391C495.83334552880524 385.2402693601088 504.1666790933323 440.70902089899243 525.0000130046501 438.2090208296343C545.8333469159679 435.7090207602762 554.166680480495 366.67776884512466 575.0000143918128 366.20901883212C595.8333483031306 365.7402688191154 604.1666818676579 436.89652079322127 625.0000157789755 435.959020767212C645.8333496902933 435.02152074120266 664.5833502104794 377.1777691364288 675.0000171661382 361.7090187072754 " transform="rotate(165, 400, 400)"></path><path d="M130.00000187266963 401.43248621236C140.22727488368017 394.8358951202582 158.63636630349916 365.3199852104818 179.09091232552026 369.76884897027134C199.54545834754134 374.21771273006095 207.7272767563498 423.707486830341 228.18182277837087 422.78703225935004C248.63636880039198 421.8665776883591 256.81818720920046 366.57793979083607 277.27273323122154 365.3506670295148C297.7272792532426 364.1233942681935 305.90909766205107 417.0495321001731 326.36364368407214 416.89612300500795C346.8181897060933 416.7427139098428 355.0000081149017 367.2222579905297 375.45455413692275 364.614303372722C395.9091001589439 362.0063487549143 404.09091856775234 401.463168031393 424.5454645897734 404.37794083953105C445.0000106117945 407.2927136476691 453.181829020603 371.70180356935236 473.6363750426241 378.6052128517845C494.09092106464516 385.5086221342166 502.27273947345356 439.96885091784776 522.7272854954747 437.5143053952052C543.1818315174958 435.0597598725627 551.3636499263042 367.28362162859577 571.8181959483254 366.8233943431003C592.2727419703465 366.3631670576048 600.4545603791549 436.2256689958179 620.9091064011759 435.30521442482694C641.363652423197 434.384759853836 659.772743843016 377.5927128236944 670.0000168540265 362.40521240234375 " transform="rotate(162, 400, 400)"></path><path d="M135.00000183799057 401.4059640587421C145.03788090435276 394.9315320609385 163.10606322380474 365.96221307541714 183.18182135652916 370.3286904692847C203.25757948925354 374.6951678631523 211.2878827423433 423.268464665279 231.36364087506772 422.36505554930636C251.43939900779213 421.4616464333338 259.4697022608819 367.19687220057966 279.5454603936063 365.9923267126162C299.6212185263307 364.78778122465275 307.6515217794205 416.7338053930772 327.7272799121449 416.58323720708177C347.8030380448693 416.4326690210863 355.83334129795907 367.8292585817605 375.90909943068345 365.26959941983813C395.9848575634079 362.7099402579158 404.01516081649766 401.43607769594115 424.09091894922204 404.2968732298544C444.1666770819465 407.1576687637676 452.19698033503624 372.2258496128272 472.27273846776063 379.00141798262166C492.348496600485 385.77698635241615 500.3787998535748 439.2286923807949 520.4545579862993 436.81960140486797C540.5303161190236 434.41051042894105 548.5606193721135 367.8894858561587 568.6363775048378 367.43778129817235C588.7121356375624 366.9860767401861 596.742438890652 435.5548286425063 616.8181970233763 434.6514195265337C636.8939551561008 433.7480104105611 654.9621374755527 378.0076679550518 665.000016541915 363.1014175415039 " transform="rotate(159, 400, 400)"></path><path d="M140.00000180331148 401.37944190512417C149.84848692502533 395.0271690016187 167.5757601441103 366.6044409403525 187.27273038753802 370.888531968298C206.96970063096575 375.17262299624355 214.84848872833686 422.82944250021694 234.54545897176456 421.9430788392627C254.24242921519226 421.0567151783084 262.1212173125634 367.8158046103233 281.81818755599113 366.63398639571767C301.51515779941883 365.452168181112 309.3939458967899 416.41807868598124 329.09091614021764 416.2703514091555C348.78788638364534 416.1226241323298 356.66667448101646 368.4362591729913 376.36364472444416 365.92489546695424C396.06061496787186 363.41353176091724 403.939403065243 401.4089873604893 423.6363733086707 404.2158056201778C443.3333435520984 407.0226238798662 451.21213164946954 372.749895656302 470.90910189289724 379.3976231134588C490.60607213632494 386.04535057061565 498.48486023369594 438.48853384374195 518.1818304771238 436.12489741453066C537.8788007205516 433.7612609853193 545.7575888179226 368.4953500837216 565.4545590613503 368.0521682532445C585.1515293047781 367.6089864227673 593.0303174021492 434.8839882891947 612.7272876455769 433.9976246282405C632.4242578890046 433.1112609672862 650.1515311080894 378.42262308640915 660.0000162298034 363.79762268066406 " transform="rotate(156, 400, 400)"></path><path d="M144.99998650984335 401.3529121221117C154.65907768690886 395.1227983129044 172.0454418056268 367.24666117589334 191.36362415975785 371.44836583791687C210.6818065138889 375.65007049994034 218.4090794555413 422.3904127057604 237.7272618096723 421.5210944998245C257.0454441638034 420.6517762938886 264.7727171054558 368.43472939067243 284.0908994595868 367.27563844942455C303.4090818137179 366.1165475081767 311.1363547553703 416.10234434949075 330.4545371095013 415.95745798183475C349.77271946363237 415.81257161417875 357.49999240528473 369.0432521348275 376.8181747594158 366.5801838846758C396.1363571135468 364.1171156345241 403.8636300551992 401.38188939564293 423.1818124093303 404.1347303811066C442.49999476346136 406.8875713665702 450.2272677051137 373.27393407038227 469.5454500592448 379.79382061490145C488.8636324133758 386.3137071594207 496.59090535502816 437.7483676772946 515.9090877091592 435.43018579479883C535.2272700632902 433.1120039123031 542.9545430049427 369.10120668188995 562.2727253590738 368.666547578922C581.5909077132048 368.23188847595407 589.3181806548572 434.2131403064886 608.6363630089882 433.3438221005527C627.9545453631192 432.4745038946168 645.3409094818371 378.837570588372 655.0000006589028 364.4938201904297 " transform="rotate(153, 400, 400)"></path><path d="M149.9999864751643 401.32638233909927C159.46968370758145 395.21842762419016 176.5151387259324 367.8888814114342 195.45453319076674 372.00819970753565C214.3939276556011 376.12751800363714 221.9696854415348 421.9513829113039 240.90907990636916 421.0991101603863C259.8484743712035 420.24683740946875 267.4242321571372 369.05365417102155 286.3636266219716 367.9172905031315C305.303021086806 366.7809268352414 312.8787788727397 415.7866100130003 331.8181733375741 415.64456455451403C350.7575678024084 415.50251909602775 358.3333255883422 369.6502450966638 377.2727200531765 367.2354723023974C396.2121145180108 364.82069950813104 403.7878723039446 401.3547914307965 422.7272667687789 404.0536551420354C441.66666123361324 406.7525188532743 449.242419019547 373.79797248446255 468.1818134843814 380.1900181163441C487.12120794921566 386.5820637482257 494.69696573514943 437.00820151084713 513.6363601999838 434.73547417506705C532.5757546648182 432.4627468392869 540.1515124507519 369.7070632800583 559.0909069155863 369.28092690459954C578.0303013804207 368.85479052914076 585.6060591663543 433.5422923237825 604.5454536311887 432.6900195728649C623.484848096023 431.8377468219474 640.530303114374 379.25251809033483 650.000000346791 365.1900177001953 " transform="rotate(150, 400, 400)"></path><path d="M154.99998644048523 401.2998449266923C164.28028972825405 395.31404930608136 180.98483564623797 368.53109401758053 199.5454422217756 372.56802594775996C218.10604879731326 376.6049578779394 225.53029142752834 421.51234548745276 244.090898003066 420.6771181915536C262.65150457860364 419.8418908956544 270.0757472088187 369.6725713219761 288.6363537843564 368.55893492744383C307.1969603598941 367.4452985329116 314.62120299010917 415.4708680471153 333.1818095656468 415.33166349779873C351.74241614118444 415.1924589484822 359.1666587713995 370.2572304291055 377.7272653469372 367.8907530907245C396.2878719224748 365.52427575234344 403.71211455268985 401.3276858365556 422.2727211282276 403.9725722735697C440.83332770376524 406.61745871058383 448.2575703339803 374.3220032691483 466.81817690951794 380.58620798839223C485.3787834850556 386.8504127076362 492.80302611527065 436.26802771500525 511.36363269080834 434.0407549259407C529.9242392663459 431.8134821368762 537.348481896561 370.31291224883216 555.9090884720988 369.89529860088254C574.4696950476365 369.4776849529329 581.8939376778515 432.87143671168184 600.4545442533891 432.03620941578265C619.0151508289268 431.2009821198834 635.7196967469106 379.66745796290314 645.0000000346795 365.8862075805664 " transform="rotate(147, 400, 400)"></path><path d="M159.99998640580617 401.27332277307437C169.09089574892664 395.4096862467616 185.45453256654355 369.1733218825159 203.6363512527845 373.12786744677334C221.81816993902547 377.0824130110307 229.09089741352187 421.07332332239076 247.27271609976282 420.2551414815099C265.4545347860038 419.4369596406291 272.7272622605002 370.29150373171973 290.9090809467412 369.20059461054524C309.0908996329822 368.1096854893708 316.3636271074786 415.1551413400193 334.5454457937195 415.01877769987254C352.72726447996047 414.8824140597257 359.99999195445685 370.8642310203363 378.18181064069785 368.5460491378406C396.36362932693885 366.22786725534485 403.6363568014352 401.3005955011037 421.81817548767617 403.89150466389304C439.9999941739172 406.4824138266824 447.2727216484136 374.8460493126231 465.45454033465455 380.9824131192294C483.6363590208955 387.11877692583573 490.9090864953918 435.5278691779523 509.0909051816329 433.34605093560344C527.2727238678739 431.1642326932545 534.5454513423703 370.918776476395 552.7272700286113 370.5096855559546C570.9090887148523 370.1005946355142 578.1818161893486 432.20059635837026 596.3636348755895 431.3824145174894C614.5454535618305 430.5642326766086 630.9090903794474 380.08241309426046 639.999999722568 366.58241271972656 " transform="rotate(144, 400, 400)"></path><path d="M164.99998637112708 401.2467891753646C173.90150176959924 395.5053117433501 189.9242294868491 369.81553830335946 207.72726028379338 373.68769750169486C225.53029108073767 377.55985670003025 232.65150339951538 420.63428971323697 250.45453419645966 419.8331533273745C268.25756499340395 419.032016941512 275.3787773121817 370.9104246973716 293.181808109126 369.8422428495549C310.98483890607025 368.77406100173823 318.106051224848 414.83940318883157 335.9090820217923 414.7058804578545C353.7121128187366 414.5723577268774 360.83332513751424 371.4712201674753 378.63635593445855 369.2013337408649C396.4393867314028 366.9314473142545 403.56059905018054 401.27349372156004 421.36362984712486 403.8104256101246C439.16666064406917 406.3473574986892 446.28787296284685 375.3700839120061 464.09090375979116 381.3786068059748C481.8939345567354 387.3871296999435 489.0151468755131 434.78769919680764 506.8181776724574 432.65133550117434C524.6212084694017 430.51497180554105 531.7424207881795 371.5246292598661 549.5454515851238 371.12406106693487C567.348482382068 370.7234928740036 574.4696947008458 431.52974456096683 592.27272549779 430.72860817510434C610.0757562947342 429.92747178924185 626.098484011984 380.49735678152604 634.9999994104562 367.2786064147949 " transform="rotate(141, 400, 400)"></path><path d="M169.99998633644802 401.2202784658385C178.71210779027183 395.60096012812215 194.39392640715465 370.4577776123867 211.81816931480228 374.2475504448C229.24241222244984 378.0373232772134 236.2121093855089 420.1952789922667 253.6363522931565 419.4111880614226C271.06059520080413 418.6270971305785 278.03029236386317 371.52936855120697 295.45453527151074 370.4839139767481C312.87877817915836 369.43845940228925 319.8484753422174 414.52368792582746 337.272718249865 414.39300610402006C354.69696115751265 414.2623242822127 361.6666583205716 372.0782322027979 379.0909012282192 369.85664123207283C396.5151441358669 367.63505026134777 403.48484129892586 401.24641483019997 420.90908420657354 403.72936944453977C438.33332711422105 406.2123240588795 445.30302427728014 375.89414139957273 462.7272671849277 381.7748233809038C480.1515100925753 387.65550536223486 487.1212072556343 434.04755210384656 504.54545016328194 431.95664295492884C521.9696930709297 429.8657338060111 528.9393902339887 372.1305049315208 546.3636331416362 371.73845946609873C563.7878760492838 371.3464140006767 570.757573212343 430.85891565174705 588.1818161199906 430.07482472090294C605.6060590276381 429.29073379005877 621.2878776445209 380.9123233569752 629.9999990983447 367.9748229980469 " transform="rotate(138, 400, 400)"></path><path d="M174.99998630176896 401.19374486812876C183.52271381094442 395.6965856247106 198.86362332746023 371.09999403323025 215.90907834581117 374.80738049972155C232.95453336416205 378.5147669662129 239.77271537150244 419.7562453831129 256.8181703898533 418.9891999072871C273.86362540820426 418.2221544314613 280.68180741554465 372.1482895168588 297.72726243389553 371.1255622157578C314.7727174522464 370.1028349146567 321.5908994595868 414.2079497746397 338.63635447793774 414.0801088620021C355.6818094962887 413.95226794936445 362.499991503629 372.68522134993685 379.5454465219799 370.51192583509714C396.59090154033083 368.3386303202574 403.40908354767123 401.2193130506563 420.4545385660221 403.6482903907713C437.49999358437304 406.0772677308863 444.31817559171344 376.41817599895575 461.3636306100643 382.17101706764913C478.4090856284152 387.9238581363426 485.22726763575554 433.3073821227019 502.2727226541065 431.2619275204998C519.3181776724575 429.21647291829765 526.1363596797978 372.7363577149919 543.1818146981489 372.35283497707906C560.2272697164997 371.96931223916613 567.0454517238401 430.1880638543437 584.0909067421909 429.4210183785179C601.1363617605418 428.6539729026921 616.4772712770576 381.3272670442408 624.999998786233 368.67101669311523 " transform="rotate(135, 400, 400)"></path><path d="M179.9999862670899 401.16721699246494C188.33331983161702 395.792216843345 203.3333202477658 371.7422161761197 219.99998737682003 375.367216276689C236.66665450587425 378.99221637725833 243.33332135749595 419.317217496005 259.9999884865502 418.5672174751976C276.6666556156044 417.8172174543901 283.33332246722614 372.7672162045566 299.99998959628033 371.7672161768133C316.6666567253345 370.76721614907007 323.3333235769563 413.8922173454979 339.9999907060105 413.76721734202994C356.6666578350647 413.64221733856203 363.3333246866864 373.29221621912177 379.9999918157406 371.16721616016736C396.6666589447948 369.04221610121294 403.33332579641655 401.1922169931585 419.9999929254708 403.56721705904874C436.666660054525 405.942217124939 443.3333269061467 376.94221632038466 459.9999940352009 382.5672164764404C476.6666611642551 388.19221663249624 483.33332801587676 432.5672178636031 499.99999514493106 430.5672178081166C516.6666622739854 428.5672177526301 523.333329125607 373.34221622050893 539.9999962546613 372.9672162101052C556.6666633837156 372.5922161997015 563.3333302353371 429.5172177789862 579.9999973643913 428.7672177581788C596.6666644934455 428.0172177373713 611.6666649095944 381.74221645355226 619.9999984741214 369.3672161102295 " transform="rotate(132, 400, 400)"></path><path d="M184.99998623241083 401.14068339475523C193.14392585228958 395.88784233993346 207.8030171680714 372.3844325969633 224.09089640782892 375.92704633161054C240.37877564758645 379.4696600662578 246.89392734348948 418.8781838868512 263.181806583247 418.1452293210621C279.4696858230045 417.412274755273 285.98483751890757 373.38613717020837 302.2727167586651 372.40886441582296C318.5605959984226 371.4315916614375 325.0757476943257 413.57647919431014 341.3636269340832 413.45432010001196C357.65150617384074 413.3321610057138 364.16665786974374 373.89920536626073 380.4545371095013 371.82250076319167C396.74241634925886 369.7457961601226 403.25756804516186 401.16511521361485 419.5454472849194 403.48613800528034C435.833326524677 405.80716079694577 442.34847822058 377.4662509197677 458.6363574603375 382.9634101631858C474.92423670009504 388.460569406604 481.43938839599804 431.82704788245843 497.7272676357556 429.87250237368755C514.0151468755132 427.9179568649166 520.5302985714161 373.94806900398004 536.8181778111737 373.5815917210855C553.1060570509313 373.21511443819094 559.6212087468343 428.84636598158284 575.9090879865919 428.11341141579373C592.1969672263492 427.38045685000463 606.856058542131 382.15716014081784 614.9999981620099 370.06340980529785 " transform="rotate(129, 400, 400)"></path><path d="M189.99998619773174 401.1141555190914C197.95453187296218 395.98347355856777 212.27271408837697 373.0266547398528 228.1818054388378 376.486882108578C244.09089678929865 379.94710947730323 250.454533329483 418.4391559997433 266.3636246799438 417.72324688897254C282.2727160304047 417.0073377782018 288.63635257058905 374.0050638579061 304.5454439210499 373.0505183768785C320.45453527151074 372.0959728958508 326.81817181169515 413.2607467651683 342.72726316215596 413.1414285800398C358.63635451261683 413.02211039491135 364.99999105280114 374.50620023544565 380.909082403262 372.4777910882619C396.8181737537228 370.4493819410781 403.18181029390723 401.1380191561171 419.09090164436805 403.4050646735578C434.9999929948289 405.67211019099847 441.3636295350133 377.9902912411966 457.27272088547414 383.3596095719771C473.1818122359349 388.7289279027576 479.54544877611926 431.08688362335965 495.4545401265801 429.17779266130435C511.363631477041 427.26870169924905 517.7272680172254 374.55392750949704 533.6363593676863 374.19597295411165C549.5454507181471 373.83801839872626 555.9090872583314 428.1755199062253 571.8181786087922 427.4596107954546C587.727269959253 426.74370168468386 602.0454521746678 382.5721095501293 609.9999978498983 370.7596092224121 " transform="rotate(126, 400, 400)"></path><path d="M194.99998616305268 401.0876333654735C202.76513789363477 396.07911049924803 216.74241100868252 373.66888260478817 232.27271446984668 377.0467236075914C247.80301793101086 380.42456461039455 254.01513931547652 418.00013383468126 269.5454427766407 417.3012701789289C285.0757462378049 416.6024065231765 291.28786762227054 374.6239962676498 306.81817108343466 373.6921780599799C322.34847454459884 372.76035985231005 328.56059592906456 412.9450200580724 344.09089939022874 412.8285427821136C359.62120285139287 412.7120655061549 365.8333242358585 375.1132008266764 381.3636276970227 373.133087135378C396.89393115818683 371.1529734440796 403.10605254265255 401.11092882066526 418.6363560038167 403.32399706388117C434.16665946498085 405.537065307097 440.37878084944657 378.5143372846714 455.9090843106107 383.7558147028143C471.4393877717748 388.9972921209572 477.6515091562405 430.3467250863068 493.18181261740466 428.4830886709671C508.71211607856884 426.6194522556274 514.9242374630346 375.1597917370599 530.4545409241987 374.8103599091837C545.984844385363 374.46092808130754 552.1969657698285 427.50467955291373 567.7272692309928 426.8058158971614C583.2575726921568 426.106952241409 597.2348458072046 382.9870646814867 604.9999975377866 371.45581436157227 " transform="rotate(123, 400, 400)"></path><path d="M199.99998612837362 401.0611073971583C207.57574391430734 396.17474362523103 221.2121079289881 374.31110665502626 236.36362350085557 377.60656129190744C251.51513907272306 380.9020159287886 257.5757453014701 417.561107854922 272.7272608733375 416.87928965418797C287.878776445205 416.19747145345394 293.93938267395197 375.2429248626961 309.09089824581946 374.3338339283841C324.24241381768695 373.424742994072 330.30302004643397 412.62928953627915 345.4545356183014 412.5156531694901C360.6060511901689 412.4020168027011 366.66665741891586 375.72019760320995 381.81817299078335 373.78837936779684C396.96968856265084 371.8565611323837 403.03029479139786 401.0838346705161 418.1818103632653 403.24292563950723C433.3333259351328 405.40201660849834 439.3939321638798 379.03837951344894 454.5454477357473 384.1520160189542C469.69696330761474 389.2656525244595 475.7575695363617 429.60656273455663 490.9090851082292 427.78838086593254C506.0606006800967 425.97019899730844 512.1212069088438 375.76565214992553 527.2727224807112 375.4247430495585C542.4242380525787 375.0838339491915 548.4848442813256 426.8338353849049 563.6363598531932 426.15201718417086C578.7878754250605 425.47019898343683 592.4242394397413 383.40201599814674 599.9999972256751 372.15201568603516 " transform="rotate(120, 400, 400)"></path><path d="M204.99998609369456 401.0345737994486C212.38634993497993 396.2703691218195 225.68180484929366 374.95332307586983 240.45453253186446 378.166391346829C255.22726021443526 381.37945961778814 261.1363512874636 417.1220742457682 275.90907897003433 416.4573015000525C290.68180665260513 415.7925287543368 296.59089772563345 375.86184582834795 311.36362540820426 374.9754821673937C326.13635309077506 374.0891185064395 332.0454441638034 412.3135513850914 346.8181718463742 412.20275592747214C361.590899528945 412.09196046985284 367.4999906019733 376.3271867503489 382.27271828454406 374.44366397082115C397.04544596711486 372.5601411912934 402.9545370401432 401.05673289097246 417.7272647227139 403.1618465857388C432.49999240528473 405.26696028050515 438.40908347831305 379.56241411283196 453.18181116088385 384.5482097056996C467.9545388434546 389.53400529856725 473.863629916483 428.86639275341196 488.6363575990538 427.0936654315035C503.4090852816246 425.320938109595 509.3181763546529 376.37150493339664 524.0909040372237 376.0391185605388C538.8636317197945 375.706732187681 544.7727227928228 426.1629835875015 559.5454504753936 425.4982108417858C574.3181781579643 424.83343809607015 587.613633072278 383.8169596854123 594.9999969135635 372.8482093811035 " transform="rotate(117, 400, 400)"></path><path d="M209.9999860590155 401.00804973848204C217.19695595565253 396.36600415515113 230.15150176959924 375.5955490334566 244.54544156287335 378.7262309384937C258.93938135614746 381.85691284353084 264.6969572734571 416.6830501733575 279.0908970667312 416.0353228826602C293.4848368600053 415.38759559196285 299.24241277731494 376.48077633074297 313.63635257058905 375.6171399431465C328.03029236386317 374.7535035555501 333.7878682811728 411.99782277064685 348.1818080744469 411.88986822219726C362.575747867721 411.7819136737477 368.33332378503064 376.9341854342311 382.72726357830476 375.0989581105886C397.1212033715789 373.2637307869462 402.8787792888885 401.02964064817195 417.2727190821626 403.08077706871353C431.6666588754367 405.13191348925506 437.42423479274635 380.08645824895814 451.81817458602046 384.9444129291881C466.2121143792946 389.8023676094181 471.9696902966042 428.12623230901045 486.3636300898783 426.39895953381756C500.7575698831524 424.6716867586247 506.51514580046205 376.9773672536109 520.9090855937362 376.65350360826227C535.3030253870104 376.3296399629136 541.06060130432 425.4921413268413 555.4545410975941 424.844414036144C569.8484808908681 424.19668674544664 582.8030267048148 384.23191290942106 589.9999966014518 373.54441261291504 " transform="rotate(114, 400, 400)"></path><path d="M214.9999860243364 400.9815218628182C222.00756197632512 396.4616353737855 234.62119868990482 376.2377711763461 248.6363505938822 379.2860667154612C262.6515024978596 382.33436225457626 268.25756325945065 416.2440222862496 282.272715163428 415.6133404505706C296.28786706740544 414.98265861489165 301.8939278289964 377.09970301844066 315.90907973297385 376.25879390420204C329.9242316369513 375.4178847899634 335.53029239854226 411.682090341505 349.5454443025196 411.5769767022251C363.56059620649705 411.4718630629453 369.166656968088 377.54118030341596 383.1818088720654 375.75424843565884C397.19696077604283 373.9673165679017 402.80302153763387 401.0025445906742 416.8181734416113 402.99970373699097C430.8333253455886 404.99686288330776 436.43938610717964 380.61049857038705 450.45453801115707 385.3406123379794C464.46968991513444 390.0707261055718 470.0757506767254 427.38606804991167 484.09090258070285 425.70424982143436C498.1060544846803 424.0224315929571 503.71211524627125 377.5832257591279 517.7272671502487 377.26788484128843C531.7424190542262 376.95254392344896 537.3484798158171 424.8212952514838 551.3636317197945 424.1906134158048C565.3787836237718 423.5599315801258 577.9924203373516 384.64686231873253 584.9999962893403 374.2406120300293 " transform="rotate(111, 400, 400)"></path><path d="M219.99998598965735 400.95499017245714C226.81816799699772 396.5572627777226 239.0908956102104 376.8799895045383 252.7272596248911 379.8458986777313C266.36362363957187 382.8118078509244 271.8181692454441 415.80499058444445 285.4545332601249 415.1913542037838C299.09089727480557 414.5777178231232 304.5454428806779 377.71862589144115 318.1818068953586 376.90044405056034C331.8181709100393 376.08226220967947 337.27271651591167 411.36635409766586 350.9090805305924 411.2640813675558C364.5454445452731 411.16180863744563 369.9999901511454 378.1481713579036 383.6363541658261 376.4095349460318C397.27271818050684 374.67089853416 402.7272637863791 400.97544471847914 416.36362780105986 402.91862659057114C429.9999918157406 404.86180846266313 435.45453742161294 381.1345350771187 449.0909014362936 385.7368079320734C462.72726545097436 390.3390807870282 468.18181105684664 426.64589997611563 481.8181750715274 425.00953629435395C495.4545390862082 423.37317261259227 500.9090846920804 378.18908044994765 514.5454487067611 377.88226225961733C528.1818127214419 377.575444069287 533.6363583273142 424.15044536142904 547.272722341995 423.5368089807684C560.9090863566756 422.9231726001078 573.1818139698883 385.06180791334674 579.9999959772287 374.9368076324463 " transform="rotate(108, 400, 400)"></path><path d="M224.99998595497829 400.92846420414196C231.6287740176703 396.6528959037056 243.56059253051595 377.5222135547764 256.81816865589997 380.40573636204743C270.075744781284 383.2892591693185 275.37877523143766 415.36596460468513 288.6363513568217 414.76937367904287C301.89392748220575 414.1727827534006 307.1969579323594 378.33755448648753 320.45453405774344 377.5420999189645C333.71211018312744 376.74664535144143 339.0151406332811 411.0506235758727 352.2727167586651 410.95119175493227C365.5302928840492 410.8517599339919 370.83332333420276 378.7551681344371 384.0908994595868 377.0648271784506C397.34847558497086 375.3744862224642 402.6515060351245 400.94835056833 415.90908216050855 402.83755516619726C429.1666582858926 404.72675976406447 434.46968873604624 381.65857730589624 447.7272648614303 386.13300924821334C460.9848409868142 390.60744119053044 466.28787143696786 425.9057376243655 479.5454475623519 424.3148284893194C492.803023687736 422.72391935427333 498.1060541378896 378.7949408628133 511.3636302632737 378.49664539999213C524.6212063886578 378.198349937171 529.9242368388113 423.4796011934202 543.1818129641954 422.88301026777793C556.4393890895794 422.2864193421356 568.371207602425 385.47675923000685 574.999995665117 375.6330089569092 " transform="rotate(105, 400, 400)"></path><path d="M229.99998592029922 400.9019382358267C236.4393800383429 396.7485290296886 248.03028945082153 378.16443760501454 260.90907768690886 380.96557404636354C273.7878659229962 383.76671048771254 278.93938121743116 414.92693862492587 291.8181694535185 414.3473931543019C304.6969576896059 413.76784768367804 309.8484729840408 378.95648308153386 322.7272612201282 378.1837557873686C335.60604945621554 377.4110284932034 340.7575647506505 410.73489305407946 353.63635298673785 410.6383021423088C366.51514122282526 410.5417112305381 371.66665651726015 379.36216491097065 384.5454447533475 377.72011941086953C397.4242329894348 376.07807391076835 402.5757482838698 400.92125641818086 415.4545365199572 402.75648374182333C428.33332475604453 404.5917110654658 433.4848400504795 382.1826195346738 446.36362828656684 386.52921056435326C459.24241652265414 390.87580159403274 464.3939318170891 425.16557527261534 477.2727200531765 423.62012068428487C490.15150828926386 422.0746660959544 495.30302358369875 379.40080127567893 508.18181181978616 379.11102854036693C521.0606000558735 378.821255805055 526.2121153503085 422.80875702541135 539.0909035863958 422.2292115547874C551.9696918224831 421.64966608416347 563.5606012349617 385.89171054666696 569.9999953530055 376.32921028137207 " transform="rotate(102, 400, 400)"></path><path d="M234.99998588562016 400.8754103601629C241.2499860590155 396.84416024832296 252.49998637112708 378.806659747904 264.99998671791775 381.52540982333096C277.4999870647084 384.2441598987579 282.49998720342467 414.48791073781797 294.99998755021534 413.9254107222124C307.499987897006 413.3629107066068 312.4999880357223 379.5754097692316 324.999988382513 378.8254097484242C337.49998872930365 378.0754097276167 342.49998886801995 410.4191606249376 354.9999892148106 410.3254106223367C367.4999895616013 410.23166061973575 372.49998970031754 379.9691597801555 384.9999900471082 378.37540973593974C397.4999903938989 376.7816596917239 402.49999053261513 400.8941603606831 414.9999908794058 402.67541041010077C427.49999122619647 404.45666045951845 432.4999913649127 382.7066598561027 444.9999917117034 386.92540997314455C457.49999205849406 391.1441600901864 462.4999921972103 424.42541101351657 474.999992544001 422.92541097190167C487.4999928907917 421.4254109302868 492.49999302950795 380.0066597811959 504.9999933762987 379.7254097733931C517.4999937230893 379.4441597655903 522.4999938618056 422.1379109500539 534.9999942085963 421.57541093444826C547.4999945553868 421.0129109188427 558.7499948674986 386.3066599559784 564.9999950408939 377.0254096984863 " transform="rotate(99, 400, 400)"></path><path d="M239.99998585094107 400.8488843918477C246.0605920796881 396.9397933743059 256.96968329143266 379.4488837981421 269.09089574892664 382.08524750764707C281.2121082064206 384.721611217152 286.0605931894182 414.0488847580587 298.1818056469122 413.50343019747146C310.3030181044062 412.9579756368842 315.1515030874038 380.194338364278 327.2727155448978 379.46706561682834C339.39392800239176 378.73979286937873 344.24241298538936 410.1034301031444 356.36362544288335 410.01252100971317C368.48483790037733 409.92161191628196 373.3333228833749 380.57615655668906 385.4545353408689 379.0307019683586C397.57574779836284 377.4852473800281 402.4242327813605 400.867066210534 414.5454452388544 402.5943389857269C426.6666576963484 404.3216117609198 431.515142679346 383.23070208488025 443.63635513684005 387.3216112892845C455.757567594334 391.4125204936887 460.6060525773315 423.6852486617664 472.72726503482556 422.23070316686716C484.8484774923196 420.77615767196784 489.69696247531715 380.6125201940615 501.8181749328112 380.3397929137679C513.9393873903051 380.06706563347433 518.7878723733027 421.467066782045 530.9090848307967 420.9216122214578C543.0302972882907 420.37615766087055 553.9393885000352 386.7216112726385 559.9999947287822 377.7216110229492 " transform="rotate(96, 400, 400)"></path><path d="M244.999985816262 400.822350794138C250.87119810036066 397.0354188708944 261.43938021173824 380.0911002189857 273.18180477993553 382.6450775625686C284.9242293481328 385.1990549061515 289.62119917541173 413.6098511489049 301.363623743609 413.081442043336C313.1060483118063 412.5530329377671 317.8030181390852 380.81325932992985 329.5454427072826 380.108713855838C341.28786727547987 379.40416838174616 345.9848371027588 409.7876919519567 357.72726167095607 409.6996237676952C369.46968623915336 409.6115555834337 374.16665606643227 381.183145703828 385.90908063462956 379.6859865713829C397.65150520282685 378.1888274389377 402.34847503010576 400.83996443099034 414.09089959830305 402.51325993195843C425.83332416650035 404.1865554329265 430.5302939937793 383.75473668426326 442.2727185619766 387.7178049760298C454.0151431301739 391.6808732677964 458.71211295745275 422.94507868062175 470.4545375256501 421.53598773243806C482.19696209384745 420.12689678425437 486.8939319211263 381.2183729775326 498.63635648932365 380.9541684247482C510.37878105752094 380.68996387196376 515.0757508847998 420.7962149846416 526.8181754529971 420.26780587907274C538.5606000211944 419.73939677350387 549.128782132572 387.13655495990406 554.9999944166707 378.4178047180176 " transform="rotate(93, 400, 400)"></path><path d="M249.99998578158295 400.7958248258228C255.68180412103325 397.1310519968774 265.9090771320438 380.73332426922383 277.2727138109444 383.2049152468847C288.63635048984503 385.67650622454556 293.18180516140524 413.1708251691456 304.5454418403059 412.6594615185951C315.90907851920645 412.14809786804454 320.4545331907667 381.4321879249762 331.8181698696674 380.75036972424215C343.181806548568 380.0685515235081 347.7272612201282 409.47196143016345 359.09089789902885 409.3867341550717C370.4545345779294 409.3015068799799 374.99998924948966 381.79014248036157 386.36362592839026 380.34127880380174C397.72726260729087 378.8924151272419 402.27271727885113 400.8128702808412 413.6363539577517 402.4321885075845C424.99999063665234 404.05150673432786 429.5454453082126 384.2787789130408 440.90908198711315 388.11400629216973C452.27271866601376 391.9492336712987 456.818173337574 422.2049163288716 468.1818100164746 420.8412799274035C479.5454466953753 419.47764352593543 484.09090136693555 381.82423339039826 495.45453804583616 381.568551565123C506.81817472473676 381.3128697398477 511.363629396297 420.12537081663277 522.7272660751976 419.6140071660822C534.0909027540981 419.1026435155317 544.3181757651087 387.55150627656417 549.999994104559 379.11400604248047 " transform="rotate(90, 400, 400)"></path><path d="M254.9999857469039 400.76929885750764C260.4924101417058 397.2266851228604 270.3787740523494 381.3755483194619 281.3636228419533 383.76475293120075C292.34847163155723 386.1539575429396 296.7424111473988 412.7317991893863 307.7272599370027 412.23748099385415C318.71210872660663 411.743162798322 323.1060482424482 382.05111652002256 334.0908970320521 381.39202559264635C345.075745821656 380.7329346652701 349.4696853374976 409.1562309083702 360.4545341271015 409.0738445424482C371.4393829167055 408.9914581765262 375.83332243254705 382.39713925689506 386.8181712221509 380.9965710362206C397.8030200117548 379.59600281554606 402.19695952759645 400.78577613069206 413.18180831720036 402.3511170832106C424.1666571068043 403.9164580357292 428.5605966226459 384.80282114181836 439.5454454122498 388.51020760830966C450.5302942018537 392.217594074801 454.92423371769524 421.4647539771214 465.9090825072992 420.146572122369C476.89393129690313 418.8283902676165 481.2878708127447 382.4300938032639 492.2727196023486 382.1829347054978C503.2575683919526 381.9357756077317 507.65150790779416 419.4545266486239 518.636356697398 418.96020845309175C529.6212054870019 418.4658902575596 539.5075693976455 387.9664575932243 544.9999937924474 379.81020736694336 " transform="rotate(87, 400, 400)"></path><path d="M259.9999857122248 400.74276716714655C265.3030161623784 397.3223125267975 274.8484709726549 382.0177666476541 285.4545318729622 384.32458489347096C296.06059277326943 386.6314031392878 300.3030171333923 412.29276748758116 310.90907803369953 411.8154947470673C321.51513893400676 411.3382220065535 325.7575632941297 382.67003939302305 336.3636241944369 382.0336757390046C346.96968509474414 381.39731208498614 351.21210945486706 408.84049466453115 361.8181703551743 408.7609492077788C372.4242312554815 408.6814037510265 376.6666556156044 383.0041303113827 387.2727165159116 381.65185754659353C397.8787774162189 380.29958478180436 402.12120177634176 400.758676258497 412.72726267664905 402.2700399367908C423.3333235769562 403.78140361508457 427.57574793707914 385.32685764855 438.18180883738637 388.9064032024037C448.78786973769354 392.48594875625736 453.0302940978165 420.72458590332536 463.6363549981237 419.4518585952885C474.242415898431 418.17913128725166 478.48484025855385 383.03594849408364 489.09090115886113 382.7973121238267C499.69696205916836 382.5586757535698 503.9393864192913 418.7836767585692 514.5454473195985 418.30640401805533C525.1515082199057 417.82913127754153 534.6969630301821 388.3814031878385 539.9999934803359 380.50640296936035 " transform="rotate(84, 400, 400)"></path><path d="M264.99998567754574 400.71624119883137C270.113622183051 397.4179456527805 279.3181678929605 382.6599906978922 289.5454409039711 384.88442257778706C299.77271391498164 387.10885445768184 303.8636231193858 411.85374150782184 314.09089613039635 411.39351422232636C324.31816914140694 410.9332869368309 328.40907834581117 383.2889679880694 338.6363513568217 382.67533160740874C348.86362436783224 382.06169522674816 352.95453357223647 408.5247641427379 363.181806583247 408.44805959515537C373.4090795942576 408.37135504757276 377.4999887986618 383.6111270879162 387.7272618096723 382.3071497790124C397.95453482068285 381.00317247010855 402.04544402508714 400.7315821083479 412.2727170360977 402.18896851241686C422.4999900471082 403.6463549164859 426.59089925151244 385.85089987732755 436.818172262523 389.3026045185436C447.0454452735335 392.75430915975966 451.13635447793774 419.9844235515752 461.3636274889483 418.757150790254C471.5909004999588 417.5298780289327 475.68180970436305 383.6418089069493 485.90908271537364 383.4116952642015C496.1363557263842 383.1815816214538 500.2272649307884 418.1128325905603 510.4545379417989 417.65260530506487C520.6818109528094 417.19237801956933 529.886356662719 388.7963545044986 534.9999931682241 381.20260429382324 " transform="rotate(81, 400, 400)"></path><path d="M269.9999856428667 400.68972476725935C274.9242282037236 397.51358831550664 283.7878648132661 383.30222428487355 293.63634993497993 385.4442697988463C303.4848350566938 387.58631531281907 307.42422910537937 411.41472506480574 317.2727142270932 410.97154323432864C327.12119934880707 410.5283614038515 331.06059339749265 383.9079061198589 340.9090785192065 383.3169970125561C350.75756364092035 382.7260879052533 354.6969576896059 408.20904315768786 364.54544281131973 408.135179519275C374.39392793303364 408.06131588086214 378.33332198171917 384.2181334011929 388.181807103433 382.9624515481744C398.03029222514687 381.70676969515586 401.96968627383245 400.7044974949419 411.8181713955463 402.10790662478615C421.66665651726015 403.51131575463035 425.6060505659457 386.37495164284826 435.4545356876596 389.6988153714267C445.3030208093734 393.0226791000051 449.2424148580589 419.24427073656824 459.0908999797728 418.0624525219626C468.9393851014867 416.88063430735696 472.87877915017225 384.2476788565581 482.7272642718861 384.0260879413195C492.5757493936 383.8044970260809 496.51514344228553 417.4419979592946 506.3636285639994 416.9988161288175C516.2121136857132 416.55563429834035 525.0757502952556 389.21131535790187 529.9999928561126 381.8988151550293 " transform="rotate(78, 400, 400)"></path><path d="M274.9999856081876 400.66319307689827C279.7348342243962 397.60921571944374 288.25756173357166 383.94444261306575 297.7272589659888 386.0041017611165C307.19695619840604 388.06376090916723 310.9848350913729 410.9756933630006 320.45453232379003 410.5495569875418C329.92422955620725 410.123420612083 333.7121084491741 384.5268289928594 343.1818056815913 383.95864715891435C352.65150291400846 383.39046532496934 356.43938180697535 407.8933069138488 365.9090790393925 407.8222841846056C375.37877627180967 407.7512614553625 379.16665516477656 384.8251244556805 388.6363523971937 383.61773805854733C398.1060496296109 382.41035166141415 401.89392852257777 400.67739762274687 411.3636257549949 402.0268294783663C420.8333229874121 403.3762613339858 424.621201880379 386.8989881495799 434.09089911279614 390.0950109655207C443.5605963452133 393.29103378146146 447.3484752381802 418.5041026627722 456.81817247059735 417.36773899488213C466.28786970301456 416.23137532699207 470.0757485959814 384.85353354737776 479.5454458283986 384.6404653596484C489.01514306081583 384.427397171919 492.8030219537826 416.77114806923987 502.2727191861998 416.3450116937811C511.742416418617 415.9188753183223 520.2651439277925 389.626260952516 524.999992544001 382.5950107574463 " transform="rotate(75, 400, 400)"></path><path d="M280.0000008322976 400.6366690159317C284.54545550385785 397.70485075277537 292.7272739126663 384.5866685706525 301.8181832557868 386.56394135278117C310.90909259890725 388.54121413490986 314.54545633615544 410.53666929058994 323.63636567927597 410.1275783701495C332.72727502239644 409.7184874497091 336.36363875964463 385.14575949525437 345.4545481027651 384.6003049346672C354.54545744588563 384.05485037407993 358.1818211831338 407.5775782994042 367.2727305262543 407.5093964793308C376.36363986937477 407.4412146592574 380.00000360662295 385.4321231395627 389.0909129497435 384.2730321983148C398.18182229286396 383.113941257067 401.81818603011214 400.65030537994636 410.9090953732326 401.9457599613411C420.00000471635315 403.24121454273575 423.63636845360134 387.4230322857061 432.7272777967218 390.4912141890092C441.8181871398423 393.5593960923124 445.45455087709047 417.7639422183707 454.545460220211 416.67303309719625C463.63636956333147 415.58212397602176 467.27273330057966 385.45939586759204 476.3636426437002 385.25485040737186C485.45455198682066 385.05030494715163 489.09091572406885 416.10030580857966 498.18182506718927 415.69121488813926C507.2727344103098 415.2821239676988 515.4545528191182 390.04121417652476 520.0000074906785 383.2912139892578 " transform="rotate(72, 400, 400)"></path><path d="M285.00000079761855 400.61013160352474C289.35606152453045 397.8004724346665 297.1969708329719 385.2288811767988 305.90909228679567 387.1237675930055C314.62121374061945 389.0186540092121 318.106062322149 410.0976318667388 326.8181837759728 409.70558640131674C335.53030522979657 409.3135409358947 339.0151538113261 385.76467664620895 347.7272752651499 385.2419493589795C356.43939671897374 384.7192220717501 359.92424530050323 407.26183633351917 368.636366754327 407.1964954226155C377.34848820815085 407.1311545117118 380.83333678968035 386.0391084720044 389.54545824350413 384.92831298664186C398.25757969732797 383.8175175012793 401.74242827885746 400.6231997857054 410.4545497326813 401.86467709287535C419.166671186505 403.1061544000452 422.65151976803463 387.94706307039183 431.3636412218584 390.88740406105734C440.0757626756822 393.8277450517229 443.5606112572117 417.02376842252875 452.2727327110355 415.9783138480699C460.98485416485937 414.93285927361103 464.46970274638886 386.0652448363659 473.18182420021265 385.86922210365486C481.89394565403643 385.6731993709438 485.37879423556603 415.429450196479 494.0909156893898 415.03740473105694C502.8030371432136 414.64535926563485 510.643946451655 390.4561540490931 515.0000071785669 383.9874038696289 " transform="rotate(69, 400, 400)"></path><path d="M290.00000076293946 400.58360468153523C294.16666754520304 397.8961046069752 301.66666775327747 385.8711042733626 310.00000131780456 387.6836043236472C318.33333488233166 389.49610437393187 321.6666683081425 409.65860493330524 330.0000018726696 409.28360492290153C338.33333543719675 408.9086049124978 341.6666688630076 386.383604287581 350.0000024275347 385.8836042737094C358.3333359920618 385.38360425983774 361.66666941787264 406.9461048580517 370.0000029823998 406.88360485631773C378.3333365469269 406.8211048545838 381.66666997273774 386.6461042948636 390.00000353726483 385.5836042653864C398.3333371017919 384.5211042359092 401.66667052760283 400.596104681882 410.0000040921299 401.7836047148271C418.333337656657 402.97110474777224 421.6666710824679 388.47110434549506 430.00000464699497 391.28360442352295C438.3333382115221 394.0961045015509 441.6666716373329 416.2836051171043 450.00000520186006 415.28360508936106C458.3333387663872 414.2836050616178 461.666672192198 386.6711042955572 470.00000575672516 386.48360429035534C478.3333393212523 386.2961042851535 481.6666727470631 414.7586050747958 490.0000063115902 414.3836050643921C498.3333398761173 414.0086050539884 505.8333400841917 390.87110441207886 510.00000686645524 384.6836042404175 " transform="rotate(66, 400, 400)"></path><path d="M295.0000007282604 400.55707775954573C298.97727356587563 397.9917367792839 306.136364673583 386.5133273699264 314.09091034881345 388.243441054289C322.04545602404386 389.9735547386516 325.227274294136 409.21957799987166 333.1818199693664 408.86162344448627C341.1363656445969 408.5036688891009 344.31818391468903 387.0025319289531 352.2727295899195 386.52525918843924C360.2272752651499 386.0479864479254 363.4090935352421 406.63037338258414 371.3636392104725 406.5707142900199C379.318184885703 406.5110551974557 382.50000315579507 387.2531001177228 390.45454883102553 386.23889554413097C398.40909450625594 385.2246909705391 401.59091277634815 400.56900957805857 409.54545845157855 401.7025323367789C417.500004126809 402.8360550954992 420.68182239690117 388.9951456205983 428.63636807213163 391.67980478598855C436.590913747362 394.3644639513788 439.77273201745413 415.5434418116798 447.7272776926846 414.5888963306522C455.68182336791506 413.6343508496245 458.8636416380072 387.2769637547485 466.8181873132377 387.0979864770558C474.7727329884681 386.91900919936313 477.95455125856023 414.08775995311265 485.90909693379064 413.7298053977273C493.86364260902104 413.3718508423419 501.02273371672845 391.28605477506466 505.00000655434366 385.37980461120605 " transform="rotate(63, 400, 400)"></path><path d="M300.00000069358134 400.53055465225344C303.78787958654823 398.08737276628983 310.60606159388857 387.15555428118745 318.1818193798223 388.80328159962806C325.75757716575606 390.4510089180686 328.78788028012957 408.7805548811353 336.3636380660633 408.4396457807683C343.939395851997 408.09873668040126 346.9696989663705 387.62146338502237 354.5454567523043 387.16691791786633C362.121214538238 386.71237245071035 365.1515176526115 406.31464572181386 372.72727543854523 406.2578275384194C380.303033224479 406.2010093550249 383.33333633885246 387.8600997552793 390.9090941247862 386.89419063757276C398.48485191071995 385.9282815198662 401.51515502509346 400.5419182889324 409.0909128110272 401.62146377342793C416.6666705969609 402.7010092579235 419.6969737113344 389.5191907103988 427.2727314972682 392.0760089631514C434.8484892832019 394.63282721590406 437.87879239757535 414.80328232095263 445.4545501835091 413.8941913866406C453.0303079694429 412.98510045232854 456.0606110838164 387.8828270286371 463.63636886975013 387.7123724784536C471.2121266556839 387.5419179282701 474.24242977005736 413.41691864612676 481.81818755599113 413.07600954575975C489.3939453419248 412.73510044539273 496.2121273492652 391.7010089527477 500.0000062422321 386.0760087966919 " transform="rotate(60, 400, 400)"></path><path d="M305.0000006589023 400.50402200821804C308.5984856072208 398.1829992165526 315.07575851419415 387.79777165570533 322.2727284108312 389.3631126082239C329.46969830746826 390.92845356074247 332.3484862661231 408.3415222256558 339.54545616276016 408.01765858030717C346.7424260593972 407.6937949349585 349.621214018052 388.24038530434854 356.81818391468903 387.8085671105503C364.0151538113261 387.3767489167521 366.8939417699809 405.9989085243005 374.090911666618 405.9449312500757C381.28788156325504 405.8909539758509 384.16666952190985 388.46708985609257 391.3636394185469 387.5494761942714C398.56060931518397 386.63186253245016 401.4393972738388 400.514817463063 408.63636717047586 401.5403856733338C415.8333370671129 402.5659538836046 418.7121250257677 390.0432262634561 425.90909492240473 392.47220360357113C433.1060648190418 394.90118094368614 435.98485277769663 414.0631132934823 443.1818226743337 413.19947690588583C450.37879257097075 412.3358405182894 453.25758052962556 388.48868076578253 460.45455042626264 388.32674894310816C467.6515203228997 388.16481712043384 470.53030828155454 412.7460678023977 477.72727817819157 412.422204157049C484.9242480748286 412.09834051170037 491.4015209818019 392.1159535936876 495.00000593012044 386.77220344543457 " transform="rotate(57, 400, 400)"></path><path d="M310.0000006242232 400.4774979472515C313.4090916278934 398.27863424988425 319.54545543449973 388.4399976132921 326.36363744184007 389.92295219988864C333.18181944918047 391.40590678648516 335.9090922521166 407.9024981532452 342.727274259457 407.59567996291486C349.5454562667973 407.28886177258454 352.2727290697335 388.85931580674355 359.0909110770738 388.4502248863031C365.90909308441417 388.0411339658627 368.6363658873504 405.6831799098559 375.45454789469073 405.6320435448008C382.2727299020311 405.5809071797458 385.00000270496724 389.07408853997475 391.8181847123076 388.20477033403887C398.636366719648 387.33545212810293 401.3636395225841 400.4877252202625 408.1818215299245 401.45931615630855C415.00000353726483 402.4309070923545 417.727276340201 390.5672703995823 424.54545834754134 392.8684068270597C431.3636403548817 395.169543254537 434.09091315781785 413.32295284908076 440.9090951651582 412.5047710081999C447.7272771724986 411.6865891673191 450.4545499754347 389.09454308599675 457.2727319827751 388.9411339908316C464.0909139901155 388.78772489566643 466.8181867930516 412.0752255417375 473.636368800392 411.7684073514072C480.45455080773235 411.46158916107686 486.59091461433866 392.5309068176963 490.00000561800886 387.4684066772461 " transform="rotate(54, 400, 400)"></path><path d="M315.00000058954413 400.45096911791336C318.219697648566 398.3742645148443 324.0151523548053 389.08221880250727 330.45454647284896 390.48278702318174C336.8939405908926 391.8833552438563 339.46969823811014 407.46346931246296 345.9090923561538 407.17369657715096C352.34848647419744 406.883923841839 354.924244121415 389.47824154076693 361.3636382394586 389.09187789368434C367.8030323575023 388.7055142466017 370.3787900047198 405.3674465270397 376.81818412276345 405.3191510711544C383.25757824080716 405.27085561526906 385.83333588802464 389.6810824554853 392.2727300060683 388.86005970543476C398.71212412411194 388.0390369553842 401.28788177132947 400.46062820909043 407.7272758893731 401.37824187091167C414.16667000741677 402.2958555327329 416.7424276546343 391.0913097673369 423.18182177267795 393.2646052821766C429.6212158907216 395.43790079701637 432.1969735379391 412.58278763630767 438.6363676559828 411.81006034214244C445.07576177402643 411.0373330479772 447.6515194212439 389.70040063783944 454.0909135392876 389.5555142701835C460.53030765733126 389.4106279025275 463.1060653045488 411.40437851270565 469.54545942259244 411.1146057773937C475.9848535406361 410.82483304208176 481.7803082468754 392.94585527333345 485.0000053058973 388.16460514068604 " transform="rotate(51, 400, 400)"></path><path d="M320.0000005548651 400.42444124224954C323.03030366923855 398.46989573347867 328.48484927511083 389.72444094539674 334.54545550385785 391.0426228001492C340.60606173260487 392.3608046549017 343.03030422410365 407.024441425355 349.0909104528506 406.75171414506144C355.1515166815976 406.4789868647678 357.57575917309646 390.0971682284647 363.6363654018434 389.73353185473985C369.6969716305904 389.369895481015 372.1212141220892 405.0517140978979 378.18182035083623 405.00625955118227C384.2424265795832 404.9608050044667 386.66666907108197 390.2880773246702 392.727275299829 389.515350030505C398.78788152857595 388.74262273633974 401.2121240200748 400.43353215159266 407.27273024882174 401.2971685391891C413.33333647756876 402.16080492678554 415.75757896906754 391.6153500887658 421.81818519781456 393.6608046909679C427.8787914265615 395.70625929317004 430.3030339180603 411.8426233772089 436.3636401468073 411.11535062975923C442.42424637555433 410.38807788230963 444.8484888670531 390.30625914335644 450.9090950958001 390.16989550320966C456.9697013245471 390.0335318630628 459.39394381604586 410.7335324373482 465.4545500447929 410.46080515705455C471.5151562735399 410.188077876761 476.9697018794121 393.3608046826449 480.00000499378564 388.8608045578003 " transform="rotate(48, 400, 400)"></path><path d="M325.000000520186 400.3979124129114C327.84090968991114 398.5655259984387 332.95454619541647 390.3666621346119 338.63636453486674 391.6024576234423C344.318182874317 392.8382531122728 346.59091021009715 406.5854125845728 352.2727285495475 406.32973075929755C357.95454688899775 406.07404893402224 360.2272742247779 390.7160939624881 365.9090925642282 390.3751848621211C371.5909109036785 390.0342757617541 373.8636382394586 404.7359807150817 379.54545657890895 404.69336707753587C385.2272749183592 404.65075343998996 387.50000225413936 390.89507124018076 393.1818205935897 390.17063940190087C398.86363893303997 389.44620756362093 401.1363662688201 400.40643514042057 406.81818460827037 401.2160942537923C412.5000029477207 402.02575336716393 414.77273028350083 392.1393894565204 420.4545486229511 394.05700314608487C426.13636696240144 395.97461683564933 428.40909429818157 411.1024581644358 434.09091263763185 410.4206399637018C439.7727309770822 409.73882176296775 442.0454583128623 390.91211669519913 447.72727665231264 390.7842757825615C453.4090949917629 390.6564348699239 455.68182232754305 410.0626854083164 461.3636406669933 409.80700358304114C467.0454590064436 409.55132175776583 472.15909551194886 393.7757531382821 475.00000468167406 389.55700302124023 " transform="rotate(45, 400, 400)"></path><path d="M330.0000004855069 400.3713864445962C332.65151571058374 398.66115912442166 337.424243115722 391.00888618485004 342.72727356587563 392.1622953077584C348.0303040160293 393.3157044306668 350.1515161960907 406.14638660481353 355.4545466462443 405.9077502345566C360.7575770963979 405.6691138642997 362.8787892764594 391.33502255753444 368.18181972661296 391.01684073052525C373.4848501767666 390.69865890351605 375.60606235682803 404.4202501932885 380.9090928069817 404.38047746491236C386.2121232571353 404.3407047365362 388.33333543719675 391.5020680167143 393.63636588735034 390.8259316343197C398.939396337504 390.1497952519251 401.0606085175654 400.37934099027143 406.36363896771906 401.13502282941835C411.66666941787264 401.89070466856526 413.7878815979341 392.66343168529795 419.0909120480877 394.4532044622248C424.3939424982413 396.2429772391516 426.5151546783028 410.36229581268566 431.8181851284564 409.7259321586672C437.12121557861 409.08956850464875 439.24242775867145 391.51797710806477 444.5454582088251 391.3986589229363C449.8484886589787 391.27934073780784 451.9697008390402 409.39184124030754 457.27273128919376 409.1532048700506C462.5757617393474 408.9145684997937 467.3484891444856 394.1907044549422 470.0000043695625 390.2532043457031 " transform="rotate(42, 400, 400)"></path><path d="M335.0000004508279 400.34486047628104C337.46212173125633 398.75679225040466 341.8939400360276 391.65111023508814 346.8181825968845 392.72213299207453C351.7424251577414 393.7931557490609 353.7121221820842 405.70736062505426 358.63636474294117 405.48576970981566C363.56060730379807 405.2641787945771 365.53030432814086 391.9539511525808 370.4545468889978 391.6584965989294C375.3787894498547 391.363042045278 377.34848647419744 404.1045196714953 382.2727290350544 404.06758785228885C387.19697159591135 404.03065603308244 389.1666686202541 392.1090647932478 394.09091118111104 391.48122386673856C399.015153741968 390.8533829402293 400.98485076631073 400.35224684012235 405.9090933271677 401.0539514050444C410.83333588802464 401.75565596996654 412.80303291236737 393.1874739140755 417.7272754732243 394.8494057783647C422.6515180340812 396.5113376426539 424.621215058424 409.6221334609355 429.5454576192809 409.03122435363264C434.4697001801379 408.4403152463298 436.43939720448066 392.1238375209304 441.36363976533755 392.0130420633111C446.28788232619456 391.90224660569186 448.2575793505373 408.7209970722987 453.1818219113942 408.4994061570601C458.10606447225115 408.27781524182154 462.53788277702233 394.6056557716023 465.00000405745084 390.949405670166 " transform="rotate(39, 400, 400)"></path><path d="M339.9999966014515 400.3183306932686C342.27272393723166 398.8524215616904 346.3636331416359 392.293330470629 350.90908781319615 393.2819668616933C355.45454248475636 394.27060325275767 357.27272435338045 405.2683308305977 361.8181790249407 405.0637853703775C366.363633696501 404.85923991015727 368.181815565125 392.57287593292995 372.7272702366853 392.3001486526363C377.27272490824555 392.0274213723427 379.09090677686964 403.78878533500483 383.63636144842985 403.75469442496814C388.1818161199901 403.72060351493144 389.9999979886142 392.7160577550841 394.5454526601745 392.13651228446014C399.0909073317347 391.5569668138362 400.90908920035884 400.32514887527594 405.45454387191904 400.9728761659733C409.9999985434793 401.6206034566706 411.8181804121034 393.7115123281558 416.36363508366367 395.24560327980737C420.9090897552239 396.77969423145896 422.72727162384797 408.8819672944881 427.27272629540823 408.33651273390086C431.8181809669685 407.7910581733136 433.63636283559254 392.7296941190988 438.1818175071528 392.62742138898864C442.72727217871306 392.52514865887855 444.54545404733716 408.05014908959254 449.09090871889737 407.84560362937236C453.63636339045763 407.64105816915213 457.72727259486186 395.02060327356514 459.999999930642 391.64560317993164 " transform="rotate(36, 400, 400)"></path><path d="M344.99999656677244 400.2918056786277C347.08332995790425 398.9480556413477 350.83333006194147 392.9355554745414 354.99999684420504 393.84180549968374C359.16666362646856 394.74805552482604 360.833330339374 404.8293058045127 364.99999712163753 404.6418057993109C369.1666639039011 404.454305794109 370.8333306168065 393.1918054816506 374.9999973990701 392.9418054747148C379.16666418133366 392.691805467779 380.83333089423905 403.4730557668859 384.99999767650263 403.44180576601894C389.16666445876615 403.41055576515197 390.8333311716716 393.3230554852919 394.9999979539351 392.7918054705533C399.1666647361987 392.2605554558147 400.83333144910415 400.2980556788011 404.9999982313677 400.89180569527366C409.16666501363125 401.4855557117462 410.8333317265367 394.23555551060764 414.9999985088002 395.6418055496216C419.1666652910638 397.0480555886355 420.8333320039692 408.1418058964123 424.99999878623277 407.6418058825406C429.16666556849634 407.141805868669 430.83333228140174 393.3355554856387 434.9999990636653 393.24180548303775C439.1666658459289 393.1480554804368 440.8333325588343 407.379305875258 444.9999993410978 407.19180587005616C449.1666661233614 407.0043058648543 452.9166662273986 395.43555554389957 454.99999961853035 392.34180545806885 " transform="rotate(33, 400, 400)"></path><path d="M349.9999965320934 400.2652768492896C351.89393597857685 399.04368590630776 355.30302698224705 393.5777766637566 359.0909058752139 394.40164032297685C362.87878476818076 395.22550398219715 364.3939363253675 404.3902769637305 368.18181521833435 404.219822413547C371.96969411130124 404.0493678633635 373.484845668488 393.810731215674 377.2727245614549 393.58345848209603C381.06060345442177 393.356185748518 382.5757550116085 403.1573223840698 386.36363390457535 403.12891329237254C390.15151279754224 403.1005042006753 391.66666435472894 393.9300494008025 395.4545432476958 393.4470948419492C399.2424221406627 392.96414028309596 400.75757369784947 400.27095866762903 404.54545259081635 400.8107314098768C408.3333314837832 401.3505041521246 409.84848304096994 394.75959487836224 413.6363619339368 396.0380040047385C417.42424082690366 397.31641313111487 418.9393923840904 407.40164068363913 422.7272712770573 406.94709521648315C426.5151501700242 406.4925497493271 428.03030172721094 393.94141303748137 431.8181806201778 393.85618576238966C435.6060595131447 393.7709584872979 437.1212110703314 406.7084588462262 440.9090899632983 406.5380042960427C444.69696885626513 406.3675497458592 448.1060598599353 395.85050399953667 449.9999993064188 393.0380039215088 " transform="rotate(30, 400, 400)"></path><path d="M354.9999964974144 400.23874801995146C356.70454199924944 399.1393161712678 359.77272390255257 394.21999785297174 363.18181490622277 394.96147514627C366.59090590989297 395.70295243956826 367.954542311361 403.95124812294824 371.3636333150312 403.7978390277831C374.7727243187014 403.6444299326179 376.1363607201695 394.42965694969746 379.5454517238396 394.22511148947723C382.9545427275098 394.020566029257 384.31817912897793 402.8415890012536 387.7272701326481 402.8160208187261C391.13636113631827 402.79045263619855 392.4999975377864 394.5370433163131 395.9090885414565 394.1023842133451C399.3181795451267 393.66772511037715 400.6818159465948 400.24386165645694 404.090906950265 400.72965712447996C407.4999979539351 401.21545259250297 408.86363435540324 395.28363424611683 412.27272535907343 396.4342024598555C415.6818163627436 397.5847706735942 417.04545276421163 406.66147547086604 420.45454376788183 406.25238455042563C423.86363477155203 405.8432936299852 425.2272711730201 394.54727058932406 428.6363621766903 394.4705660417415C432.0454531803605 394.3938614941589 433.40908958182854 406.03761181719443 436.81818058549874 405.8842027220293C440.22727158916894 405.7307936268641 443.29545349247206 396.26545245517383 444.99999899430713 393.73420238494873 " transform="rotate(27, 400, 400)"></path><path d="M359.9999964627353 400.2122215747991C361.51514801992204 399.23494882041365 364.24242082285815 394.8622214263727 367.27272393723166 395.5213123537489C370.30302705160517 396.18040328112517 371.5151482973546 403.5122216663518 374.54545141172804 403.37585802620504C377.57575452610155 403.2394943860582 378.78787577185096 395.04858506790663 381.8181788862245 394.86676688104427C384.8484820005979 394.68494869418186 386.06060324634734 402.52585800262324 389.09090636072085 402.5031307292655C392.12120947509436 402.48040345590766 393.3333307208437 395.1440396160094 396.36363383521723 394.7576759689268C399.39393694959074 394.3713123218442 400.6060581953401 400.21676702947065 403.6363613097136 400.64858522326887C406.6666644240871 401.0804034170671 407.8787856698365 395.8076759980572 410.90908878421 396.83040329915826C413.9393918985835 397.8531306002593 415.15151314433285 405.92131264227874 418.18181625870636 405.55767626855396C421.2121193730799 405.19403989482913 422.4242406188293 395.15313052535254 425.4545437332028 395.08494870527915C428.48484684757625 395.01676688520575 429.69696809332567 405.36676717234843 432.7272712076992 405.2304035322016C435.7575743220727 405.0940398920548 438.4848471250088 396.6804032949968 439.99999868219555 394.43040323257446 " transform="rotate(24, 400, 400)"></path><path d="M364.9999964280562 400.1856913149495C366.3257540405946 399.3305776548622 368.71211774316373 395.50444118507636 371.36363296824055 396.0811457465306C374.0151481933174 396.6578503079848 375.0757542833481 403.07319139505813 377.7272695084249 402.95387320992967C380.3787847335017 402.8345550248012 381.43939082353245 395.6675093714186 384.0909060486092 395.508418457914C386.74242127368603 395.3493275444094 387.80302736371675 402.21012318929564 390.4545425887936 402.19023682510755C393.1060578138704 402.17035046091945 394.1666639039011 395.7510321010085 396.81817912897793 395.4129639098112C399.4696943540547 395.0748957186139 400.53030044408547 400.1896685877871 403.18181566916223 400.56750950736057C405.83333089423905 400.945350426934 406.89393698426977 396.33171393530034 409.5454522093466 397.22660032376376C412.1969674344234 398.1214867122272 413.25757352445413 405.18114599899417 415.90908874953095 404.86296417198497C418.5606039746077 404.5447823449758 419.6212100646385 395.75898664668375 422.27272528971525 395.6993275541195C424.9242405147921 395.6396684615553 425.9848466048228 404.6959187128051 428.6363618298996 404.5766005276767C431.28787705497643 404.45728234254824 433.67424075754553 397.09535032012246 434.999998370084 395.12660026550293 " transform="rotate(21, 400, 400)"></path><path d="M370.0000002080744 400.15916439295995C371.13636387596443 399.4262098271709 373.1818184781666 396.14666428164014 375.4545458139467 396.6409824771724C377.7272731497268 397.13530067270455 378.63636408403886 402.63416446162455 380.909091419819 402.5318917315144C383.1818187555991 402.4296190014043 384.09090968991114 396.28643701279066 386.3636370256913 396.1500733726438C388.6363643614714 396.01370973249703 389.5454552957834 401.8943917138281 391.81818263156356 401.8773462588097C394.0909099673437 401.8603008037914 395.00000090165577 396.3580279238677 397.2727282374359 396.0682551885558C399.545455573216 395.7784824532438 400.45454650752805 400.1625734839636 402.7272738433081 400.4864371293123C405.00000117908826 400.81030077466096 405.90909211340033 396.8557552104036 408.18181944918047 397.62280068622937C410.4545467849606 398.38984616205516 411.3636377192726 404.4409826935697 413.63636505505275 404.1682554132761C415.9090923908329 403.8955281329825 416.8181833251449 396.3648461058751 419.09091066092503 396.31370974082C421.36363799670517 396.262573375765 422.27272893101724 404.02507359112195 424.5454562667973 403.92280086101186C426.81818360257745 403.8205281309018 428.8636382047796 397.51030068310826 430.0000018726696 395.8228006362915 " transform="rotate(18, 400, 400)"></path><path d="M375.00000017339534 400.1326379478076C375.94696989663703 399.5218424763167 377.65151539847216 396.78888785504114 379.54545484495554 397.20081968465126C381.43939429143904 397.6127515142614 382.1969700700324 402.19513800502807 384.0909095165158 402.10991072993636C385.98484896299925 402.0246834548446 386.74242474159263 396.9053651309999 388.6363641880761 396.79172876421086C390.5303036345595 396.67809239742184 391.2878794131529 401.5786607151977 393.18181885963634 401.5644561693491C395.0757583061197 401.55025162350046 395.8333340847131 396.9650242235641 397.72727353119654 396.72354694413747C399.62121297768 396.4820696647108 400.37878875627337 400.13547885697733 402.2727282027568 400.40536522810123C404.16666764924025 400.67525159922513 404.92424342783363 397.37979696234396 406.818182874317 398.01900152553213C408.71212232080046 398.65820608872025 409.46969809939384 403.7008198649824 411.3636375458773 403.4735471314044C413.2575769923607 403.24627439782637 414.0151527709541 396.97070604190355 415.90909221743755 396.92809240435764C417.803031663921 396.8854787668118 418.5606074425143 403.35422894627595 420.4545468889978 403.2690016711842C422.3484863354812 403.1837743960924 424.0530318373163 397.9252515229312 425.000001560558 396.51900148391724 " transform="rotate(15, 400, 400)"></path><path d="M380.00000013871625 400.10611054898095C380.7575759173096 399.6174741717882 382.12121231877774 397.43111047476776 383.63636387596443 397.7606559384559C385.1515154331512 398.090201402144 385.7575760560259 401.75611059475733 387.2727276132126 401.68792877468394C388.7878791703994 401.61974695461055 389.3939397932741 397.52429229553474 390.90909135046087 397.4333832021035C392.42424290764757 397.3424741086723 393.0303035305223 401.26292876289307 394.54545508770906 401.25156512621413C396.0606066448958 401.24020148953525 396.6666672677705 397.57201956958613 398.18181882495725 397.37883774604484C399.696970382144 397.1856559225035 400.3030310050187 400.1083832763168 401.81818256220544 400.3242923732159C403.3333341193922 400.540201470115 403.93939474226687 397.90383776061003 405.4545462994536 398.4152014111606C406.9696978566404 398.9265650617111 407.57575847951506 402.9606560827208 409.0909100367018 402.7788378958584C410.60606159388857 402.59701970899596 411.2121222167633 397.5765650242577 412.72727377395006 397.54247411422097C414.24242533113676 397.50838320418427 414.8484859540115 402.68338334775564 416.36363751119825 402.61520152768225C417.878789068385 402.5470197076088 419.24242546985306 398.34020140907984 420.00000124844644 397.21520137786865 " transform="rotate(12, 400, 400)"></path><path d="M385.0000001040372 400.07958267331713C385.5681819379822 399.7131053904226 386.5909092390833 398.07333261765723 387.7272729069733 398.3204917154233C388.8636365748634 398.5676508131894 389.31818204201943 401.31708270764943 390.4545457099095 401.26594634259436C391.59090937779956 401.2148099775393 392.0454548449556 398.1432189832325 393.18181851284567 398.0750371631591C394.3181821807357 398.0068553430857 394.7727276478917 400.9471963337512 395.9090913157818 400.93867360624205C397.04545498367185 400.93015087873283 397.5000004508279 398.179014438771 398.63636411871795 398.03412807111505C399.772727786608 397.88924170345905 400.227273253764 400.081287218819 401.36363692165406 400.2432190414933C402.50000058954413 400.40515086416764 402.95454605670017 398.42787808203894 404.09090972459023 398.8114008199518C405.2272733924803 399.19492355786474 405.68181885963634 402.220491823622 406.81818252752635 402.08412818347523C407.95454619541647 401.9477645433284 408.40909166257245 398.18242352977467 409.5454553304625 398.1568553472472C410.6818189983526 398.13128716471965 411.1363644655086 402.01253727239816 412.2727281333987 401.9614009073431C413.4090918012887 401.910264542288 414.4318191023898 398.75515081839126 415.0000009363348 397.9114007949829 " transform="rotate(9, 400, 400)"></path><path d="M390.0000000693581 400.05305575132763C390.3787879586548 399.80873756273127 391.06060615938884 398.71555571422107 391.8181819379822 398.8803284460651C392.5757577165756 399.04510117790915 392.87878802801293 400.87805577421585 393.6363638066063 400.8439648641791C394.3939395851997 400.8098739541424 394.69696989663703 398.76214662460455 395.4545456752304 398.7166920778889C396.2121214538238 398.67123753117335 396.5151517652612 400.63146485828366 397.27272754385456 400.6257830399442C398.0303033224479 400.6201012216048 398.3333336338852 398.7860102616302 399.0909094124786 398.6894193498596C399.848485191072 398.59282843808893 400.15151550250937 400.05419211499554 400.90909128110275 400.16214666344507C401.6666670596961 400.27010121189466 401.9696973711334 398.9519193571422 402.7272731497268 399.2076011824174C403.48484892832016 399.4632830076927 403.78787923975756 401.48032851819755 404.54545501835094 401.38941942476634C405.3030307969443 401.29851033133514 405.60606110838165 398.788282988966 406.36363688697503 398.77123753394767C407.12121266556835 398.7541920789293 407.42424297700575 401.34169215071495 408.1818187555991 401.30760124067825C408.9393945341925 401.27351033064156 409.62121273492653 399.17010118137705 410.0000006242232 398.6076011657715 " transform="rotate(6, 400, 400)"></path><path d="M395.00000003467903 400.0265278756638C395.1893939793274 399.90436878136563 395.5303030796944 399.35777785711053 395.9090909689911 399.4401642230325C396.2878788582878 399.5225505889546 396.4393940140065 400.4390278871079 396.8181819033032 400.4219824320896C397.1969697925998 400.4049369770712 397.3484849483185 399.38107331230225 397.7272728376152 399.3583460389445C398.1060607269119 399.3356187655867 398.2575758826306 400.31573242914186 398.6363637719273 400.31289151997214C399.01515166122397 400.31005061080236 399.1666668169426 399.39300513081514 399.5454547062393 399.3447096749298C399.924242595536 399.29641421904444 400.0757577512547 400.0270960574978 400.4545456405514 400.08107333172256C400.83333352984806 400.1350506059473 400.9848486855667 399.4759596785711 401.3636365748634 399.6038005912087C401.7424244641601 399.73164150384633 401.8939396198788 400.7401642590988 402.27272750917547 400.6947097123832C402.65151539847216 400.64925516566757 402.8030305541908 399.394141494483 403.1818184434875 399.38561876697383C403.5606063327842 399.3770960394647 403.7121214885029 400.6708460753575 404.09090937779956 400.65380062033915C404.46969726709625 400.6367551653208 404.81060636746327 399.5850505906885 405.00000031211164 399.30380058288574 " transform="rotate(3, 400, 400)"></path></g></svg>