<?xml version="1.0" standalone="no"?>
<!DOCTYPE svg PUBLIC "-//W3C//DTD SVG 20010904//EN"
 "http://www.w3.org/TR/2001/REC-SVG-20010904/DTD/svg10.dtd">
<svg version="1.0" xmlns="http://www.w3.org/2000/svg"
 width="512.000000pt" height="512.000000pt" viewBox="0 0 512.000000 512.000000"
 preserveAspectRatio="xMidYMid meet">
<metadata>
Created by potrace 1.14, written by Peter Selinger 2001-2017
</metadata>
<g transform="translate(0.000000,512.000000) scale(0.100000,-0.100000)"
fill="#000000" stroke="none">
<path d="M2440 4584 c-52 -23 -117 -52 -143 -64 -63 -28 -121 -53 -127 -55 -3
-1 -21 -9 -40 -17 -19 -9 -78 -35 -130 -58 -52 -23 -113 -50 -135 -60 -22 -10
-94 -41 -160 -70 -66 -29 -145 -64 -175 -77 -30 -14 -71 -32 -90 -40 -19 -8
-58 -26 -87 -39 -28 -13 -55 -24 -60 -24 -4 0 -29 -11 -56 -25 -26 -14 -47
-22 -47 -18 0 5 -4 2 -9 -5 -4 -7 -14 -15 -22 -16 -14 -3 -61 -22 -134 -55
-22 -10 -121 -54 -220 -97 -99 -43 -188 -83 -198 -90 -15 -9 17 -12 154 -12
165 0 176 1 229 26 30 14 57 27 60 27 8 3 51 21 115 50 33 15 74 33 90 41 36
16 457 201 845 371 157 69 303 133 325 143 118 53 108 52 183 20 37 -17 75
-34 84 -40 10 -5 25 -10 33 -10 8 0 15 -4 15 -10 0 -5 6 -10 13 -10 11 0 99
-37 272 -115 17 -7 143 -63 280 -123 138 -60 280 -124 318 -141 37 -17 70 -31
72 -31 3 0 33 -13 67 -29 35 -16 131 -58 213 -94 l150 -66 162 0 c93 0 165 4
168 9 4 6 0 10 -8 10 -8 0 -27 6 -43 14 -16 8 -47 22 -69 31 -81 36 -121 53
-175 78 -30 14 -109 48 -175 77 -129 56 -190 83 -245 108 -19 9 -37 17 -40 18
-3 0 -21 7 -40 16 -19 8 -93 41 -165 73 -71 31 -158 70 -193 86 -34 16 -64 29
-66 29 -3 0 -33 13 -68 29 -124 56 -533 236 -538 237 -4 1 -72 30 -90 39 -3 1
-48 -17 -100 -41z"/>
<path d="M2407 4004 c-1 -1 -36 -5 -77 -9 -41 -4 -77 -9 -80 -10 -3 -2 -24 -6
-46 -9 -184 -28 -419 -121 -582 -231 -90 -60 -183 -143 -242 -215 -19 -23 -43
-52 -54 -64 -10 -11 -26 -32 -35 -46 -9 -14 -20 -29 -24 -35 -60 -72 -211
-416 -233 -528 -5 -28 -10 -52 -22 -107 -10 -40 -16 -75 -28 -160 -25 -175
-24 -528 2 -725 15 -119 72 -352 105 -430 6 -16 13 -35 14 -40 4 -16 92 -196
121 -245 48 -83 137 -194 222 -277 47 -46 87 -83 91 -83 3 0 17 -10 31 -22
134 -122 461 -253 706 -284 150 -19 411 -19 529 0 17 3 47 7 69 10 21 3 46 8
56 11 10 3 31 7 47 9 44 6 198 59 286 100 82 37 215 121 282 177 72 60 204
200 237 250 17 27 35 49 40 49 4 0 8 4 8 9 0 4 23 47 50 95 28 48 50 89 50 91
0 2 12 30 26 61 26 57 61 151 69 189 3 11 9 31 14 45 5 14 13 43 17 65 4 22 8
45 10 50 2 10 9 42 19 95 2 14 7 43 10 65 3 22 8 51 10 65 5 37 18 268 17 320
0 73 -12 282 -17 320 -15 110 -25 163 -46 250 -11 47 -22 93 -24 104 -2 10 -9
24 -16 32 -6 8 -9 14 -6 14 10 0 -77 234 -93 250 -3 3 -16 28 -30 55 -14 28
-28 52 -31 55 -3 3 -18 25 -32 50 -14 25 -34 54 -44 65 -10 11 -32 38 -48 60
-109 145 -335 310 -527 386 -29 11 -66 27 -83 34 -29 13 -109 34 -222 59 -30
6 -95 16 -158 22 -54 6 -333 12 -338 8z m313 -400 c25 -3 65 -10 90 -15 25 -6
52 -12 60 -14 182 -41 416 -212 538 -392 122 -180 214 -455 227 -680 2 -28 5
-55 8 -60 7 -11 2 -410 -6 -488 -4 -33 -14 -96 -22 -140 -9 -44 -18 -91 -21
-105 -10 -51 -66 -205 -100 -273 -104 -212 -260 -371 -463 -475 -36 -18 -72
-34 -80 -35 -9 -1 -21 -5 -26 -9 -13 -8 -129 -38 -169 -44 -140 -19 -323 -19
-416 0 -8 1 -33 6 -55 10 -43 8 -163 45 -180 55 -5 3 -12 6 -15 7 -12 2 -88
41 -115 59 -208 135 -342 305 -440 560 -19 48 -62 216 -69 268 -3 23 -8 52
-10 64 -25 123 -25 513 -2 663 3 19 8 51 11 70 7 55 15 91 31 150 19 69 67
213 74 220 3 3 16 28 30 55 93 189 282 382 445 454 84 37 122 53 135 57 8 2
42 11 75 19 33 9 103 18 155 21 52 3 97 8 100 10 4 5 121 -2 210 -12z"/>
</g>
</svg>
